<svg xmlns="http://www.w3.org/2000/svg" viewBox="0 0 139.51 48.61"><title>Django logo</title><path d="M449.9,511.47c0,4.61,3.36,7.36,8.75,6.11V505.36c-5.46-1.66-8.73,1.7-8.75,6.11m8.92-23.78h7.43v35.17c-7.12,1.16-13.94,1.9-18.82-.83-6.28-3.51-6.79-14.68-1.82-19.65,2.52-2.52,7.6-4.3,13-3.14V488.19c0-.23,0-.47.17-.5" transform="translate(-442.25 -487.7)"/><path d="M478.3,495.46h-7.43V487.7h7.43Z" transform="translate(-442.25 -487.7)"/><path d="M567.47,517.91c8.1,3.15,9-14.5.83-12.88-5.07,1-4.91,11.29-.83,12.88m.33-19c6.19-.66,10.85,2.07,12.72,6.27,3.18,7.18-.17,15.41-5.28,17.83a15.13,15.13,0,0,1-7.93,1.16c-7.74-.68-12.63-8.57-9.91-17.34a11.92,11.92,0,0,1,1.16-2.64c1.68-2.86,4.52-4.78,9.25-5.28" transform="translate(-442.25 -487.7)"/><path d="M488.54,515.11c-2.06,3.45,3.11,4.28,6.44,3.3v-5.12c-2.56.36-5.47.19-6.44,1.82m13,8.09c-6.14.35-15.47,2.44-18.82-1.65-2-2.41-1.76-7,0-9.25,2.28-2.91,7.24-3.54,11.72-4a4.25,4.25,0,0,0-.33-3.3c-4.1-1-8.17.57-11.06,1.82v-5.78c4.37-2,14.48-4.12,17.5.5,1.59,2.42,1,6.65,1,10.4Z" transform="translate(-442.25 -487.7)"/><path d="M527.67,523.53h-7.43V514c0-3.15.51-7.15-1.16-8.42-1.3-1-4.4-.5-6.27,0v18h-7.43v-23c7.6-2,21.31-4.09,22.29,5.45.49,4.7-.36,11.76,0,17.5" transform="translate(-442.25 -487.7)"/><path d="M538.74,515.6c1.25,2,4.64,2.78,7.43,1.49q-.23-5.8-.17-11.89c-6.42-1.7-10.25,5.58-7.27,10.4m18.66-15.69a48.51,48.51,0,0,1-2.48,5.45c-.77.17-1.43-.3-1.82,0-.17,8,1.71,19-1.49,24.77-1.93,3.5-5.47,5.74-10.9,6.11a22.19,22.19,0,0,1-9.91-1.49v-6.94c3.39,2,12,3.59,14.37-.5.71-1.2.66-2.45,1-4.29-1.55.08-3.06.8-5,.83-7.79.1-12.61-6.1-10.73-14.7a11.71,11.71,0,0,1,5.28-7.6c5.42-3.31,13.76-3.05,21.63-1.65" transform="translate(-442.25 -487.7)"/><path d="M478.3,499.39c0,5.47,0,9.4,0,16.05-.32,6.53-.24,11.74-2.63,14.86a13.89,13.89,0,0,1-2.31,2.15c-.7.53-2,1.6-2.81,1.65s-2.74-1.07-3.63-1.49a26.6,26.6,0,0,0-3.47-1.65c2.83-1.75,5.51-3.06,6.61-6.61,1-3.08.83-7.54.83-11.89s0-9.29,0-13.08h7.41Z" transform="translate(-442.25 -487.7)"/></svg>