<svg width="258" height="156" xmlns="http://www.w3.org/2000/svg" xmlns:xlink="http://www.w3.org/1999/xlink" xml:space="preserve" overflow="hidden"><defs><clipPath id="clip0"><rect x="511" y="282" width="258" height="156"/></clipPath></defs><g clip-path="url(#clip0)" transform="translate(-511 -282)"><path d="M571.882 322.693 620.541 322.693 620.541 326.574 576.343 326.574 576.343 355.749 617.911 355.749 617.911 359.63 576.343 359.63 576.343 391.636 621.001 391.636 621.001 395.517 571.882 395.517ZM624.892 322.693 630.063 322.693 652.977 354.699 676.392 322.693 708.258 281.985 655.928 358.06 682.933 395.497 677.512 395.497 653.008 361.45 628.373 395.517 623.102 395.517 650.267 358.08 624.902 322.693ZM684.804 326.574 684.804 322.693 740.254 322.693 740.254 326.574 714.719 326.574 714.719 395.527 710.259 395.527 710.259 326.564 684.814 326.564ZM510.98 322.693 516.561 322.693 593.466 438.015 561.69 395.517 515.681 328.194 515.481 395.517 510.98 395.517ZM739.824 390.476C738.93 390.492 738.191 389.781 738.174 388.886 738.158 387.991 738.87 387.252 739.764 387.236 740.659 387.219 741.398 387.931 741.414 388.826 741.415 388.836 741.415 388.846 741.415 388.856 741.437 389.728 740.747 390.453 739.875 390.475 739.858 390.476 739.841 390.476 739.824 390.476ZM744.205 386.205 746.596 386.205C746.597 387.409 747.574 388.384 748.779 388.383 748.838 388.383 748.897 388.38 748.956 388.375 750.506 388.375 751.387 387.445 751.387 385.685L751.387 374.583 753.817 374.583 753.817 385.695C753.817 388.856 751.997 390.696 748.976 390.696 746.146 390.696 744.205 388.936 744.205 386.235ZM756.998 386.065 759.408 386.065C759.618 387.555 761.068 388.506 763.159 388.506 765.249 388.506 766.54 387.505 766.54 386.095 766.54 384.895 765.629 384.175 763.539 383.685L761.539 383.195C758.708 382.534 757.418 381.194 757.418 378.854 757.418 376.053 759.698 374.193 763.109 374.193 766.289 374.193 768.61 376.053 768.75 378.704L766.389 378.704C766.159 377.253 764.909 376.353 763.079 376.353 761.248 376.353 759.878 377.283 759.878 378.694 759.878 379.814 760.698 380.454 762.739 380.934L764.459 381.354C767.67 382.104 768.99 383.414 768.99 385.775 768.99 388.776 766.67 390.666 762.989 390.666 759.518 390.666 757.188 388.866 756.988 386.055Z" fill="#D9D9D9"/></g></svg>