<svg width="1280" height="260" xmlns="http://www.w3.org/2000/svg" xmlns:xlink="http://www.w3.org/1999/xlink" xml:space="preserve" overflow="hidden"><g transform="matrix(1 0 0 1 0 -230)"><path d="M850.59 0.107169 1073.46 0.107169 1073.46 41.2437 985.051 41.2437 985.051 257.656 940.842 257.656 940.842 41.2437 850.59 41.2437 850.59 0.107169ZM484.051 0.107169 484.051 41.2437 305.404 41.2437 305.404 107.419 449.072 107.419 449.072 148.555 305.404 148.555 305.404 216.519 484.051 216.519 484.051 257.659 261.199 257.659 261.199 41.2437 261.18 41.2437 261.18 0.107169 484.051 0.107169ZM595.338 0.214337 537.486 0.214337 744.698 257.763 802.718 257.763 699.099 129.076 802.553 0.409189 744.698 0.50012 670.135 93.1067 595.338 0.214337ZM654.702 184.184 625.731 148.162 537.32 257.961 595.338 257.961 654.702 184.184Z" fill="#AFABAB" transform="matrix(1.00037 0 0 1 0 231.019)"/><path d="M262.748 257.656 55.2568 0 0 0 0 257.549 44.2054 257.549 44.2054 55.0522 207.215 257.656 262.748 257.656Z" fill="#AFABAB" fill-rule="evenodd" transform="matrix(1.00037 0 0 1 0 231.019)"/><path d="M1083.4 256.084C1080.29 256.135 1077.3 254.92 1075.1 252.72 1072.8 250.476 1071.66 247.761 1071.69 244.542 1071.66 241.415 1072.8 238.729 1075.1 236.485 1077.3 234.285 1080.29 233.07 1083.4 233.121 1086.51 233.121 1089.24 234.241 1091.54 236.485 1093.88 238.726 1095.05 241.415 1095.08 244.542 1095.08 246.595 1094.5 248.606 1093.43 250.355 1092.38 252.084 1090.91 253.517 1089.15 254.519 1087.41 255.557 1085.42 256.098 1083.4 256.084ZM1158.85 147.584 1178.44 147.584 1178.44 223.057C1178.41 229.99 1176.91 235.923 1173.98 240.912 1171.01 245.9 1166.91 249.706 1161.64 252.392 1156.39 255.048 1150.25 256.409 1143.27 256.409 1136.89 256.409 1131.17 255.256 1126.08 253.012 1120.99 250.771 1116.95 247.407 1113.98 242.977 1110.98 238.551 1109.52 233.03 1109.52 226.421L1129.14 226.421C1129.17 229.311 1129.83 231.822 1131.08 233.916 1132.32 235.989 1134.13 237.659 1136.3 238.726 1138.54 239.85 1141.12 240.412 1144.02 240.412 1147.17 240.412 1149.86 239.762 1152.05 238.431 1154.23 237.132 1155.91 235.183 1157.08 232.588 1158.22 230.023 1158.82 226.834 1158.85 223.057L1158.85 147.584ZM1259.04 177.101C1258.56 172.525 1256.46 168.953 1252.81 166.417 1249.12 163.851 1244.36 162.578 1238.52 162.578 1234.42 162.578 1230.89 163.198 1227.95 164.41 1225.01 165.65 1222.74 167.3 1221.18 169.398 1219.62 171.492 1218.84 173.883 1218.78 176.568 1218.78 178.812 1219.32 180.758 1220.37 182.381 1221.42 184.038 1222.83 185.424 1224.65 186.545 1226.53 187.729 1228.54 188.69 1230.65 189.409 1232.86 190.175 1235.08 190.825 1237.29 191.358L1247.51 193.865C1251.58 194.79 1255.56 196.075 1259.4 197.703 1263.09 199.232 1266.55 201.279 1269.67 203.783 1272.67 206.193 1275.12 209.21 1276.86 212.635 1278.63 216.091 1279.53 220.134 1279.53 224.797 1279.53 231.085 1277.91 236.602 1274.64 241.386 1271.38 246.137 1266.68 249.855 1260.51 252.541 1254.37 255.198 1246.94 256.555 1238.19 256.555 1229.75 256.555 1222.38 255.256 1216.18 252.658 1209.95 250.092 1205.09 246.312 1201.59 241.357 1198.09 236.398 1196.2 230.347 1195.93 223.235L1215.34 223.235C1215.61 226.951 1216.81 230.052 1218.84 232.559 1220.91 235.037 1223.61 236.868 1226.9 238.109 1230.23 239.317 1233.94 239.937 1238.04 239.937 1242.33 239.937 1246.1 239.288 1249.36 238.021 1252.6 236.752 1255.15 234.978 1256.97 232.676 1258.83 230.403 1259.76 227.72 1259.79 224.648 1259.76 221.845 1258.92 219.514 1257.3 217.682 1255.65 215.854 1253.38 214.318 1250.47 213.08 1247.15 211.708 1243.72 210.593 1240.23 209.745L1227.83 206.614C1218.87 204.341 1211.77 200.889 1206.59 196.255 1201.38 191.621 1198.8 185.483 1198.8 177.776 1198.8 171.463 1200.54 165.913 1204.05 161.162 1207.52 156.411 1212.28 152.718 1218.31 150.094 1224.36 147.438 1231.18 146.139 1238.79 146.139 1246.52 146.139 1253.29 147.438 1259.13 150.094 1264.97 152.722 1269.55 156.382 1272.88 161.045 1276.2 165.709 1277.94 171.048 1278.03 177.101L1259.04 177.101Z" fill="#AFABAB" transform="matrix(1.00037 0 0 1 0 231.019)"/></g></svg>