<svg xmlns="http://www.w3.org/2000/svg" xmlns:xlink="http://www.w3.org/1999/xlink" viewBox="0 0 100.06 99.48"><defs><mask id="a" x="0" y="0" width="100.06" height="99.48" maskUnits="userSpaceOnUse"><g transform="translate(-461.97 -462.26)"><path d="M532.94,561.32a6.22,6.22,0,0,0,5-.19l20.59-9.91a6.25,6.25,0,0,0,3.54-5.63V478.41a6.25,6.25,0,0,0-3.54-5.63l-20.59-9.91a6.22,6.22,0,0,0-7.1,1.21l-39.41,36-17.17-13a4.16,4.16,0,0,0-5.32.24l-5.51,5a4.17,4.17,0,0,0,0,6.16L478.28,512l-14.89,13.58a4.17,4.17,0,0,0,0,6.16l5.51,5a4.16,4.16,0,0,0,5.32.24l17.17-13,39.41,36A6.22,6.22,0,0,0,532.94,561.32Zm4.1-72L507.14,512,537,534.7Z" style="fill:#fff"/></g></mask><linearGradient id="b" x1="511.97" y1="563.74" x2="511.97" y2="464.26" gradientTransform="matrix(1, 0, 0, -1, 0, 1026)" gradientUnits="userSpaceOnUse"><stop offset="0" stop-color="#fff"/><stop offset="1" stop-color="#fff" stop-opacity="0"/></linearGradient></defs><title>Visual Studio Code logo</title><g style="mask:url(#a)"><path d="M558.49,472.8l-20.6-9.92a6.23,6.23,0,0,0-7.11,1.21l-67.45,61.5a4.17,4.17,0,0,0,0,6.16l5.51,5a4.17,4.17,0,0,0,5.32.24l81.23-61.62a4.14,4.14,0,0,1,6.64,3.3v-.24A6.25,6.25,0,0,0,558.49,472.8Z" transform="translate(-461.97 -462.26)" style="fill:#0065a9"/><path d="M558.49,551.2l-20.6,9.92a6.23,6.23,0,0,1-7.11-1.21l-67.45-61.5a4.17,4.17,0,0,1,0-6.16l5.51-5a4.17,4.17,0,0,1,5.32-.24l81.23,61.62a4.14,4.14,0,0,0,6.64-3.3v.24A6.25,6.25,0,0,1,558.49,551.2Z" transform="translate(-461.97 -462.26)" style="fill:#007acc"/><path d="M537.89,561.13a6.23,6.23,0,0,1-7.11-1.21,3.66,3.66,0,0,0,6.25-2.59V466.67a3.66,3.66,0,0,0-6.25-2.59,6.23,6.23,0,0,1,7.11-1.21l20.6,9.91a6.25,6.25,0,0,1,3.54,5.63v67.17a6.25,6.25,0,0,1-3.54,5.63Z" transform="translate(-461.97 -462.26)" style="fill:#1f9cf0"/><g style="opacity:0.25"><path d="M532.88,561.32a6.22,6.22,0,0,0,5-.19l20.59-9.91a6.25,6.25,0,0,0,3.54-5.63V478.41a6.25,6.25,0,0,0-3.54-5.63l-20.59-9.91a6.22,6.22,0,0,0-7.1,1.21l-39.41,36-17.17-13a4.16,4.16,0,0,0-5.32.24l-5.51,5a4.17,4.17,0,0,0,0,6.16L478.22,512l-14.89,13.58a4.17,4.17,0,0,0,0,6.16l5.51,5a4.16,4.16,0,0,0,5.32.24l17.17-13,39.41,36A6.22,6.22,0,0,0,532.88,561.32Zm4.1-72L507.08,512,537,534.7Z" transform="translate(-461.97 -462.26)" style="fill:url(#b)"/></g></g></svg>